<svg xmlns="http://www.w3.org/2000/svg" viewBox="0 0 512 512">
  <circle cx="256" cy="256" r="256" fill="#4dabf7"/>
  <path fill="#f1c40f" d="M125.7 186.7c0-45.6 58.3-82.6 130.3-82.6s130.3 37 130.3 82.6c0 10.7-3.2 20.8-9.1 30.1l-14.3 90.3h-214l-14.1-90.1c-5.9-9.4-9.1-19.5-9.1-30.3z"/>
  <path fill="#e67e22" d="M371.3 186.7c0 10.7-3.2 20.8-9.1 30.1l-14.3 90.3h-214l-14.1-90.1c-5.9-9.4-9.1-19.5-9.1-30.3 0-45.6 58.3-82.6 130.3-82.6s130.3 37 130.3 82.6z"/>
  <path fill="#f1c40f" d="M386.3 214.7l-14.3 90.3h-214l-14.1-90.1c-1.3-2-2.5-4.1-3.6-6.2l12.7 81.3h220l12.9-81.5c-1.1 2.1-2.4 4.2-3.6 6.2z"/>
  <path fill="#f39c12" d="M256 104.1c-72 0-130.3 37-130.3 82.6 0 10.7 3.2 20.8 9.1 30.3l14.1 90.1h214l14.3-90.3c5.9-9.4 9.1-19.5 9.1-30.1 0-45.6-58.3-82.6-130.3-82.6z"/>
  <path fill="#d35400" d="M256 104.1c-64.3 0-117.7 29.5-128.5 68.3 7.8-31.5 59.9-55.3 121.6-47.5 65.4 8.2 113.8 40.5 113.8 78 0 2.2-0.1 4.3-0.3 6.4 12.7-18.7 21.3-43 21.3-69.5 0-20.9-12.7-37.5-30.2-46.3-25.1-12.6-60.5-19.4-97.7-19.4z"/>
  <path fill="#f1c40f" d="M256 104.1c72 0 130.3 37 130.3 82.6 0 10.7-3.2 20.8-9.1 30.1l-14.3 90.3h-214l-14.1-90.1c-5.9-9.4-9.1-19.5-9.1-30.3 0-45.6 58.3-82.6 130.3-82.6z"/>
  <path fill="#e67e22" d="M256 104.1c-72 0-130.3 37-130.3 82.6 0 10.7 3.2 20.8 9.1 30.3l14.1 90.1h214l14.3-90.3c5.9-9.4 9.1-19.5 9.1-30.1 0-45.6-58.3-82.6-130.3-82.6z"/>
  <circle cx="256" cy="226" r="60" fill="#f1c40f"/>
  <path fill="#34495e" d="M236 296v20h40v-20z"/>
  <path fill="#e74c3c" d="M256 336c-22.1 0-40 17.9-40 40v30h80v-30c0-22.1-17.9-40-40-40z"/>
  <path fill="#c0392b" d="M256 336c-22.1 0-40 17.9-40 40v10h80v-10c0-22.1-17.9-40-40-40z"/>
  <path fill="#2ecc71" d="M146 406h220v106H146z"/>
  <path fill="#27ae60" d="M146 416h220v96H146z"/>
  <path fill="#f1c40f" d="M371.3 186.7c0 10.7-3.2 20.8-9.1 30.1l-14.3 90.3h-214l-14.1-90.1c-5.9-9.4-9.1-19.5-9.1-30.3 0-45.6 58.3-82.6 130.3-82.6s130.3 37 130.3 82.6z"/>
  <path fill="#6d4c41" d="M256 100c-50 0-90 30-90 70 0 30 20 60 20 60s10 30 70 30 70-30 70-30 20-30 20-60c0-40-40-70-90-70z"/>
  <path fill="#ffccbc" d="M256 160c-35 0-60 25-60 55 0 25 15 55 60 55s60-30 60-55c0-30-25-55-60-55z"/>
  <path fill="#5d4037" d="M256 260c-20 0-40 10-40 30s20 10 40 10 40-10 40-10-20-30-40-30z"/> 
  <rect x="156" y="380" width="200" height="132" rx="40" ry="40" fill="#8bc34a"/>
</svg>
